# xmcd
#
# Track frame offsets: 
#        183
#        10223
#        24540
#        40270
#        56455
#        70618
#        82335
#        89390
#        98165
#        114605
#        128430
#        142280
#        157588
#        170960
#        186263
#        198360
#        207385
#        216053
#        230283
#        241283
#        253588
#        268030
#
# Disc length: 3707 seconds
#
# Revision: 10
# Processed by: cddbd v1.5.2PL0 Copyright (c) Steve Scherf et al.
# Submitted via: ExactAudioCopy v1.3
#
DISCID=370e7916
DTITLE=Various Artist - Kings Of Cajun: (22 Stomps From The Swamps) V
DTITLE=ol.1
DYEAR=1992
DGENRE=Cajun
TTITLE0=Nathan Abshire - Les Filles Du Canada
TTITLE1=Balfa Brothers Orchestra - Acadien Two Step
TTITLE2=Austin Pitre and The Evangeline Playboys - Triangle Special
TTITLE3=Joe Bonsall and The Orange Playboys - French Fiddle Boogie
TTITLE4=Balfa Brothers Orchestra - Midnight Special
TTITLE5=Aldus Roger and The Lafayette Playboys - Oson Two Step
TTITLE6=Nathan Abshire - La Queue De Torture
TTITLE7=Bessyl Duhon - Love Bridge Waltz
TTITLE8=Phil Menard and His Louisiana Travellers - One Is A Lonely Numbe
TTITLE8=r
TTITLE9=Don Montoucet and The Wandering Aces - Fee Fee Ponchot
TTITLE10=Balfa Brothers Orchestra - Old Fashioned Two Step
TTITLE11=Boozoo Chavis - Zydeco Hee-Haw
TTITLE12=Ricky Bearb and The Cajun Ramblers Five - That's What Makes The
TTITLE12=Cajun Dance
TTITLE13=Don Montoucet and The Wandering Aces - Hicks Wagon Wheel Specia
TTITLE13=l
TTITLE14=Camey Doucet with Wayne Toups and The Crowley Aces - Me And My 
TTITLE14=Cousin
TTITLE15=Ardoin Brothers Orchestra - Mamou Hot Step
TTITLE16=Ronnie Fruge and The Cajun Kings - L'Annee Tu Partit
TTITLE17=Boozoo Chavis - Jolie Catan
TTITLE18=Cajun Grass Band - La Cravat
TTITLE19=Balfa Brothers Orchestra - Lacassine Special
TTITLE20=Ardoin Family Orchestra with Dewey Balfa - Johnny Can't Dance
TTITLE21=Sheryl Cormier with Blackie Forestier and The Cajun Aces - Sher
TTITLE21=yl's Special
EXTD=YEAR: 1992 ID3G: 80
EXTT0=
EXTT1=
EXTT2=
EXTT3=
EXTT4=
EXTT5=
EXTT6=
EXTT7=
EXTT8=
EXTT9=
EXTT10=
EXTT11=
EXTT12=
EXTT13=
EXTT14=
EXTT15=
EXTT16=
EXTT17=
EXTT18=
EXTT19=
EXTT20=
EXTT21=
PLAYORDER=
